<?xml version="1.0" encoding="UTF-8"?>
<svg id="Layer_2" data-name="Layer 2" xmlns="http://www.w3.org/2000/svg" viewBox="0 0 230.38 226.9">
  <defs>
    <style>
      .cls-1 {
        fill: #00798C;
      }

      .cls-2 {
        fill: #EA8348;
      }
    </style>
  </defs>
  <g id="Layer_1-2" data-name="Layer 1">
    <path class="cls-2" d="m162.2,36.57s-30.33-20.35-62.02-13.7c0,0-9.56-11.71-23.01-17,0,0,67.61-25.78,123.18,30.7,0,0-18.2-2.75-38.15,0Z"/>
    <path class="cls-2" d="m228.62,85.92s-5.5,17.43-23.97,29.77c0,0,3.91,53.92-44.74,80.92,0,0-4.61,16.98-19.48,30.28,0,0,104.66-17.55,88.19-140.98Z"/>
    <path class="cls-1" d="m220.08,66.99s.06-30.19-63.02-18.96c-13.94-10.26-31.16-16.32-49.8-16.32-3.99,0-7.91.3-11.76.84C72.77,7.71,54.83,14.48,54.83,14.48c-23.19,8.57-21.91,38.31-19,55.6-8.2,12.26-12.86,26.39-12.58,40.74,0,.41.11,3.89.11,3.89,12.41,5.33,29.53,3.35,29.53,3.35l.73-11.83c2.6-14.79,11.15-27.54,23.12-35.64,0,0-5.47-11.5-19.41-22.47l-.1-.08c-4.31,3.1-8.31,6.57-11.94,10.33,3.84-42.73,36.29,2.88,36.29,2.88,16.21,20.92,27.06,39.9,34.22,56.61-20.1,5.58-45.2,9.47-75.84,9.17,0,0-33.74-.59-23.67-19.05,0,0,3.81-8.11,3.74-10.23-.22-6.5-10.09,3.12-10.09,3.12,0,0-4.56,3.84-7.93,12.12,0,0-13.68,32.07,30.03,40.19,13.77,27.6,42.27,46.56,75.2,46.56,5,0,6.03.02,10.87-.64,0,0,5.06-15.46,3.26-29.57l-.1-.71c-4.93,1.18-8.8,1.38-14.03,1.38-14.28,0-27.28-5.5-37-14.5,15.09-.51,34.24-2.74,55.14-8.96,7.48,32.34.26,50.78.26,50.78-3.9,13.5-18.02,7.11-18.02,7.11l-4.43-1.51c-19.82-5.39,5.16,9.99,5.16,9.99,30.9,17.22,39.53-19.12,39.53-19.12.5-2.02.95-4.03,1.36-6.03,26-13.47,41.99-39.44,41.99-72.23,0-1.34-.03-2.67-.1-3.99,16.36-12.75,29.94-28.39,28.9-44.75ZM53.55,106.8l-.68,10.81c-.07-1.15-.07-.7-.07-1.87,0-3.05.27-6.02.76-8.93Zm66.1-44.14c15.23,3.46,28.76,13.17,36.27,27.19,0,0,13.83-4.8,23.16-17.74l.02-.04c-3.14-5.16-6.83-9.95-10.98-14.3,5.31,1.15,31.3,7.87,13.72,25.59,0,0-11.79,12.91-38.39,24.7-6.24-17.51-15.01-32.75-23.8-45.4Zm32.33,85.52c-.28-3.92-.7-7.76-1.28-11.52,2.76-1.38,5.86-2.98,9.2-4.8-1.58,6.31-4.21,11.73-7.92,16.32Z"/>
    <path class="cls-1" d="m65.02,115.69s-1.63-21.5,17.97-35.95c0,0,13.51,17.17,17.97,32.08,0,0-15.74,2.66-35.94,3.87Z"/>
  </g>
</svg>