<?xml version="1.0" encoding="UTF-8"?>
<svg id="Layer_2" data-name="Layer 2" xmlns="http://www.w3.org/2000/svg" viewBox="0 0 676.49 477.97">
  <defs>
    <style>
      .cls-1 {
        stroke-width: 0px;
      }
    </style>
  </defs>
  <g id="Layer_1-2" data-name="Layer 1">
    <g>
      <path class="cls-1" d="m105.85,424.33c-2.06,0-5.67-.79-11.19-4.54l-1.11-.75h-.67s-.68-.29-.68-.29c-3.89-1.61-26.24-13.07-83.95-80.79l-.25-.27c-5.25-5.7-12.2-18.34-4.72-29.34l53.69-78.98,3.18,2.14c1.4.95,2.93,2.43,4.56,4.4l.11.13.1.14c3.82,5.62,39.15,56.02,103.06,94.78l2.28,1.38-.5,2.62c-.28,1.49-1.1,3.21-2.42,5.12l-56.28,81.04.11.76-1.82,1.38c-1.41,1.05-2.97,1.05-3.48,1.05Z"/>
      <path class="cls-1" d="m182.78,301.3c-2.92,0-5.98-1.07-9.09-3.18l-.16-.11-.17-.1c-.5-.29-48.87-28.66-91.06-85.93l-.07-.1-.07-.11c-.83-1.3-7.91-12.98-.72-23.57l48.57-71.59.33-.3c.83-.77,3.07-2.56,5.82-2.56,3.06,0,6.34,2.13,9.76,6.33,2.07,2.69,49.58,64.1,92.42,87.4l.25.13.22.17c.55.41,5.38,4.16,6.3,9.18.2,1.07.8,4.33-2.49,9.08l-47.49,68.63-.09.12c-.88,1.09-5.62,6.5-12.24,6.5Z"/>
      <path class="cls-1" d="m261.18,183.28c-2.48,0-4.93-.83-7.47-2.53l-.26-.17c-.46-.28-53.03-32.57-89.83-84.6l-.13-.19-.14-.17c-1.29-1.59-11.84-15.5-1.01-31.42L201.45,6.7l.07-.12c1.19-1.88,5.09-6.59,9.27-6.59,2.73,0,5.72,1.95,8.87,5.79l.09.11c1.95,2.57,48.28,63.12,90.17,87.74l.16.09.15.11c6.64,4.8,11.3,13.45,4.45,23.34l-40.73,58.85-.09.11c-.97,1.19-6.13,7.14-12.67,7.14Z"/>
      <path class="cls-1" d="m361.4,106.44c8.32-12.15,24.07-33.78,36.06-42.13l.25-.17.22-.2c.47-.41,45.08-38.6,99.67-38.6,13.11,0,25.96,2.19,38.18,6.5l.69.24.55.48c4.84,4.2,5.6,9.76,2.03,14.86l-40.73,58.18-.18.31-.09.13c-.67.98-4.58,6.17-11.58,6.17-2.01,0-4.16-.42-6.41-1.26l-.16-.06-.15-.07c-3.7-1.75-23.68-10.49-53.67-10.49-20.19,0-40.4,3.98-60.08,11.84l-11.75,4.69,7.15-10.43Z"/>
      <path class="cls-1" d="m626.61,235.01c-3.03,0-6.02-1.83-8.86-5.44l-.09-.11-.08-.12c-3.65-5.41-37.32-53.91-93.52-91.51l-.13-.09-.12-.1c-7.1-5.63-3.99-11.3-2.87-12.9l43.72-62.45,1.23-2.07h.35c1.64-1.8,4.6-4.25,8.51-4.25,2.74,0,5.76,1.16,8.98,3.45l.26.17c.4.26,47.06,30.94,89.45,87.29l.27.36.18.41c1.14,2.62,6.4,16.36-2.44,29.13l-38.85,56.18-.71.43c-1,.6-3.01,1.6-5.28,1.6Z"/>
      <path class="cls-1" d="m550.69,353.54c-3.57,0-6.96-3.26-9.17-6l-.1-.13c-1.74-2.35-43.27-58.01-91.47-88.53l-.37-.23-.31-.31c-4.59-4.64-7.97-11.79-3.67-17.91l48.95-69.68.07-.09c.86-1.09,5.49-6.5,11.61-6.5,2.6,0,5.32.99,8.08,2.96l.14.1.15.09c.48.3,47.21,29.84,87.71,86.93l.09.14c1.03,1.6,9.85,16.03,1.05,28.82l-45.86,66.66-.15.17c-.32.36-3.21,3.52-6.76,3.52Z"/>
      <path class="cls-1" d="m468.3,477.97c-2.21,0-3.87-.7-5.06-2.15l-.1-.11-.09-.12c-1.68-2.39-41.69-58.87-93.58-91.92l-.4-.25-.32-.34c-2.35-2.47-9.41-11.4-1.64-22.46l48.26-68.71c.69-.93,6.4-8.24,14.18-8.24,3.23,0,6.6,1.27,10.01,3.76l.21.16.24.14c.42.25,40.06,24.28,88.61,88.25l.26.34.18.39c2.98,6.57,4.05,16.65-1.87,25.26l-50.75,73.81-1,.44c-1.82.8-4.53,1.75-7.15,1.75Z"/>
      <path class="cls-1" d="m320.22,175.48l.12-.14c2.27-2.58,14.23-15.77,27.24-22.08l.39-.19.35-.25c.3-.21,28.69-19.47,72.67-19.47,13.53,0,27.31,1.82,40.96,5.4l.9.24.69.62c1.56,1.41,4.28,4.32,4.93,8.05.19,1.09.77,4.4-2.65,9.27l-46.28,65.79-.35.31c-1.53,1.33-7.26,5.69-16.62,5.69-2.37,0-4.85-.28-7.36-.84l-.17-.04-.17-.05c-3.67-1.17-23.34-7.03-50.03-7.03-19.89,0-38.64,3.26-55.74,9.7l-11.97,4.51,43.07-59.51Z"/>
      <path class="cls-1" d="m184.81,456.53c-11.89,0-24-1.63-35.98-4.86l-.47-.13-.49-.04c-1.98-.21-4.82-1.05-6.35-2.22l-1.71-1.32.23-2.15c.19-1.72,1.18-4.79,4.85-9.64l14.38-18.97.36-.29c8.28-6.72,25.38-20.07,30.85-22.51l.45-.2c23.98-10.75,49.95-16.67,73.11-16.67,14.37,0,27.92,2.22,40.28,6.61l.27.1.29.07c.79.21,1.62.54,2.4.93l3.87,1.94-2.38,3.61c-.51.78-1.18,1.62-1.98,2.49l-.18.19-.16.22c-.48.63-48.31,62.85-121.63,62.85Z"/>
      <path class="cls-1" d="m240.09,294.98l.2-.21c.69-.71,17.04-17.39,27.68-22.34l.26-.12.24-.15c.34-.2,32.2-18.72,75.9-18.72,14.47,0,28.83,2,42.68,5.95l.25.07.24.1c.15.07,3.75,1.66,4.54,4.31.7,2.27-.9,5.24-2.37,7.32l-54.23,76.89-.22.39c-.46.75-4.76,7.3-13.42,7.3-1.99,0-4.11-.34-6.32-1.02l-.16-.05-.16-.06c-3.75-1.52-23.9-9.11-52.83-9.11-19.81,0-39.21,3.57-57.68,10.62l-12.01,4.59,47.41-65.76Z"/>
    </g>
  </g>
</svg>